<svg xmlns="http://www.w3.org/2000/svg" xmlns:xlink="http://www.w3.org/1999/xlink" width="1920" zoomAndPan="magnify" viewBox="0 0 1440 809.999993" height="1080" preserveAspectRatio="xMidYMid meet" version="1.0"><metadata/><defs><g/><clipPath id="9d36360413"><path d="M 273.703125 477 L 1359 477 L 1359 499 L 273.703125 499 Z M 53 477 L 236.605469 477 L 236.605469 499 L 53 499 Z M 53 477 " clip-rule="nonzero"/></clipPath></defs><g clip-path="url(#9d36360413)"><path fill="#ff3131" d="M 53.449219 477.027344 L 1358.988281 477.027344 L 1358.988281 498.777344 L 53.449219 498.777344 Z M 53.449219 477.027344 " fill-opacity="1" fill-rule="nonzero"/></g><g fill="#ff3131" fill-opacity="1"><g transform="translate(53.448263, 465.776598)"><g><path d="M 12.34375 -74.53125 C 12.34375 -96.9375 19.519531 -115.957031 33.875 -131.59375 C 48.226562 -147.238281 65.394531 -155.0625 85.375 -155.0625 C 105.488281 -155.0625 122.722656 -147.222656 137.078125 -131.546875 C 151.429688 -115.867188 158.609375 -96.863281 158.609375 -74.53125 C 158.609375 -52.40625 151.410156 -33.644531 137.015625 -18.25 C 122.628906 -2.863281 105.414062 4.828125 85.375 4.828125 C 65.613281 4.828125 48.5 -2.828125 34.03125 -18.140625 C 19.570312 -33.460938 12.34375 -52.257812 12.34375 -74.53125 Z M 35 -77.640625 C 35 -64.035156 36.609375 -52.023438 39.828125 -41.609375 C 43.054688 -31.191406 47.265625 -23.15625 52.453125 -17.5 C 57.648438 -11.84375 63.039062 -7.65625 68.625 -4.9375 C 74.207031 -2.21875 79.859375 -0.859375 85.578125 -0.859375 C 91.160156 -0.859375 96.691406 -2.179688 102.171875 -4.828125 C 107.648438 -7.484375 113 -11.601562 118.21875 -17.1875 C 123.445312 -22.769531 127.707031 -30.785156 131 -41.234375 C 134.300781 -51.679688 135.953125 -63.816406 135.953125 -77.640625 C 135.953125 -88.378906 134.804688 -98.0625 132.515625 -106.6875 C 130.222656 -115.3125 127.285156 -122.234375 123.703125 -127.453125 C 120.128906 -132.679688 116.03125 -137.015625 111.40625 -140.453125 C 106.789062 -143.890625 102.316406 -146.269531 97.984375 -147.59375 C 93.648438 -148.914062 89.445312 -149.578125 85.375 -149.578125 C 80.21875 -149.578125 74.953125 -148.429688 69.578125 -146.140625 C 64.210938 -143.859375 58.828125 -140.191406 53.421875 -135.140625 C 48.015625 -130.097656 43.59375 -122.617188 40.15625 -112.703125 C 36.71875 -102.785156 35 -91.097656 35 -77.640625 Z M 35 -77.640625 "/></g></g><g transform="translate(224.290425, 465.776598)"><g><path d="M 6.125 35.859375 C 13.925781 35.859375 18.738281 35.375 20.5625 34.40625 C 22.382812 33.445312 23.296875 30.640625 23.296875 25.984375 L 23.296875 -77 C 23.296875 -81.863281 22.382812 -84.90625 20.5625 -86.125 C 18.738281 -87.34375 13.925781 -87.953125 6.125 -87.953125 L 6.125 -94.8125 L 37.796875 -97.1875 L 37.796875 -82.6875 C 46.597656 -92.351562 56.875 -97.1875 68.625 -97.1875 C 81.070312 -97.1875 91.84375 -92.351562 100.9375 -82.6875 C 110.03125 -73.019531 114.578125 -61.28125 114.578125 -47.46875 C 114.578125 -33.507812 109.742188 -21.695312 100.078125 -12.03125 C 90.410156 -2.363281 78.882812 2.46875 65.5 2.46875 C 58.195312 2.46875 52.09375 0.585938 47.1875 -3.171875 C 42.289062 -6.929688 39.375 -10.207031 38.4375 -13 L 38.4375 25.984375 C 38.4375 30.710938 39.367188 33.539062 41.234375 34.46875 C 43.097656 35.394531 47.894531 35.859375 55.625 35.859375 L 55.625 42.625 C 40.226562 42.195312 31.957031 41.984375 30.8125 41.984375 C 29.382812 41.984375 21.15625 42.195312 6.125 42.625 Z M 38.4375 -25.015625 C 38.4375 -22.796875 38.597656 -21.289062 38.921875 -20.5 C 39.242188 -19.71875 40.125 -18.144531 41.5625 -15.78125 C 47.351562 -6.90625 54.976562 -2.46875 64.4375 -2.46875 C 64.5 -2.46875 64.566406 -2.46875 64.640625 -2.46875 C 73.015625 -2.46875 80.390625 -6.742188 86.765625 -15.296875 C 93.140625 -23.859375 96.328125 -34.582031 96.328125 -47.46875 C 96.328125 -59.78125 93.425781 -70.226562 87.625 -78.8125 C 81.820312 -87.40625 74.914062 -91.703125 66.90625 -91.703125 C 61.175781 -91.703125 55.804688 -90.160156 50.796875 -87.078125 C 45.785156 -84.003906 41.664062 -79.675781 38.4375 -74.09375 Z M 38.4375 -25.015625 "/></g></g><g transform="translate(346.27452, 465.776598)"><g><path d="M 6.125 -48.4375 C 6.125 -62.25 10.5625 -74.054688 19.4375 -83.859375 C 28.3125 -93.671875 39.117188 -98.578125 51.859375 -98.578125 C 64.753906 -98.578125 74.546875 -94.390625 81.234375 -86.015625 C 87.929688 -77.640625 91.28125 -67.4375 91.28125 -55.40625 C 91.28125 -53.1875 90.992188 -51.863281 90.421875 -51.4375 C 89.847656 -51.007812 88.304688 -50.796875 85.796875 -50.796875 L 24.375 -50.796875 C 24.375 -35.828125 26.59375 -24.835938 31.03125 -17.828125 C 37.1875 -8.015625 45.457031 -3.109375 55.84375 -3.109375 C 57.269531 -3.109375 58.84375 -3.25 60.5625 -3.53125 C 62.28125 -3.820312 64.894531 -4.59375 68.40625 -5.84375 C 71.914062 -7.101562 75.207031 -9.414062 78.28125 -12.78125 C 81.363281 -16.144531 83.796875 -20.472656 85.578125 -25.765625 C 86.015625 -27.847656 86.945312 -28.851562 88.375 -28.78125 C 90.3125 -28.78125 91.28125 -27.921875 91.28125 -26.203125 C 91.28125 -24.910156 90.582031 -22.816406 89.1875 -19.921875 C 87.789062 -17.023438 85.765625 -13.859375 83.109375 -10.421875 C 80.460938 -6.984375 76.578125 -3.972656 71.453125 -1.390625 C 66.335938 1.179688 60.703125 2.46875 54.546875 2.46875 C 41.660156 2.46875 30.367188 -2.414062 20.671875 -12.1875 C 10.972656 -21.957031 6.125 -34.039062 6.125 -48.4375 Z M 24.59375 -55.40625 L 76.78125 -55.40625 C 76.78125 -58.488281 76.507812 -61.75 75.96875 -65.1875 C 75.4375 -68.625 74.398438 -72.722656 72.859375 -77.484375 C 71.316406 -82.242188 68.753906 -86.125 65.171875 -89.125 C 61.597656 -92.132812 57.160156 -93.640625 51.859375 -93.640625 C 49.503906 -93.640625 47.054688 -93.132812 44.515625 -92.125 C 41.972656 -91.125 39.160156 -89.40625 36.078125 -86.96875 C 33.003906 -84.539062 30.390625 -80.570312 28.234375 -75.0625 C 26.085938 -69.550781 24.875 -63 24.59375 -55.40625 Z M 24.59375 -55.40625 "/></g></g><g transform="translate(443.883273, 465.776598)"><g><path d="M 7.09375 0 L 7.09375 -6.765625 C 14.894531 -6.765625 19.6875 -7.25 21.46875 -8.21875 C 23.257812 -9.1875 24.15625 -12.03125 24.15625 -16.75 L 24.15625 -75.703125 C 24.15625 -81.140625 23.207031 -84.539062 21.3125 -85.90625 C 19.414062 -87.269531 14.675781 -87.953125 7.09375 -87.953125 L 7.09375 -94.8125 L 38.015625 -97.1875 L 38.015625 -74.09375 C 44.890625 -89.488281 55.734375 -97.1875 70.546875 -97.1875 C 81.578125 -97.1875 89.273438 -94.460938 93.640625 -89.015625 C 96.859375 -85.367188 98.804688 -81.503906 99.484375 -77.421875 C 100.171875 -73.335938 100.515625 -66 100.515625 -55.40625 L 100.515625 -13.421875 C 100.648438 -10.347656 101.898438 -8.46875 104.265625 -7.78125 C 106.628906 -7.101562 111.101562 -6.765625 117.6875 -6.765625 L 117.6875 0 C 102.726562 -0.425781 94.5 -0.640625 93 -0.640625 C 91.851562 -0.640625 83.582031 -0.425781 68.1875 0 L 68.1875 -6.765625 C 75.988281 -6.765625 80.800781 -7.25 82.625 -8.21875 C 84.457031 -9.1875 85.375 -12.03125 85.375 -16.75 L 85.375 -67.96875 C 85.375 -75.414062 84.226562 -81.335938 81.9375 -85.734375 C 79.644531 -90.140625 75.347656 -92.34375 69.046875 -92.34375 C 61.460938 -92.34375 54.625 -89.15625 48.53125 -82.78125 C 42.445312 -76.414062 39.40625 -67.863281 39.40625 -57.125 L 39.40625 -16.75 C 39.40625 -12.03125 40.316406 -9.1875 42.140625 -8.21875 C 43.972656 -7.25 48.753906 -6.765625 56.484375 -6.765625 L 56.484375 0 C 41.523438 -0.425781 33.328125 -0.640625 31.890625 -0.640625 C 30.742188 -0.640625 22.476562 -0.425781 7.09375 0 Z M 7.09375 0 "/></g></g><g transform="translate(565.867369, 465.776598)"><g><path d="M 4.1875 -87.953125 L 4.1875 -92.78125 C 10.914062 -93.0625 16.515625 -95.582031 20.984375 -100.34375 C 25.460938 -105.101562 28.472656 -110.421875 30.015625 -116.296875 C 31.554688 -122.171875 32.394531 -128.503906 32.53125 -135.296875 L 38.015625 -135.296875 L 38.015625 -94.8125 L 69.484375 -94.8125 L 69.484375 -87.953125 L 38.015625 -87.953125 L 38.015625 -26.84375 C 38.015625 -11.019531 42.953125 -3.109375 52.828125 -3.109375 C 57.054688 -3.109375 60.566406 -5.273438 63.359375 -9.609375 C 66.148438 -13.941406 67.546875 -19.972656 67.546875 -27.703125 L 67.546875 -39.84375 L 73.015625 -39.84375 L 73.015625 -27.28125 C 73.015625 -19.332031 71.1875 -12.382812 67.53125 -6.4375 C 63.882812 -0.5 58.445312 2.46875 51.21875 2.46875 C 48.570312 2.46875 45.941406 2.125 43.328125 1.4375 C 40.710938 0.757812 37.703125 -0.453125 34.296875 -2.203125 C 30.898438 -3.953125 28.144531 -6.992188 26.03125 -11.328125 C 23.925781 -15.660156 22.875 -20.976562 22.875 -27.28125 L 22.875 -87.953125 Z M 4.1875 -87.953125 "/></g></g><g transform="translate(651.127379, 465.776598)"><g><path d="M 7.09375 0 L 7.09375 -6.765625 C 14.894531 -6.765625 19.6875 -7.25 21.46875 -8.21875 C 23.257812 -9.1875 24.15625 -12.03125 24.15625 -16.75 L 24.15625 -131.109375 C 24.15625 -136.554688 23.207031 -139.957031 21.3125 -141.3125 C 19.414062 -142.675781 14.675781 -143.359375 7.09375 -143.359375 L 7.09375 -150.234375 L 38.65625 -152.59375 L 38.65625 -76.140625 L 38.875 -76.140625 C 41.238281 -81.429688 45.066406 -86.257812 50.359375 -90.625 C 55.660156 -95 62.390625 -97.1875 70.546875 -97.1875 C 81.578125 -97.1875 89.273438 -94.460938 93.640625 -89.015625 C 96.859375 -85.367188 98.804688 -81.503906 99.484375 -77.421875 C 100.171875 -73.335938 100.515625 -66 100.515625 -55.40625 L 100.515625 -13.421875 C 100.648438 -10.347656 101.898438 -8.46875 104.265625 -7.78125 C 106.628906 -7.101562 111.101562 -6.765625 117.6875 -6.765625 L 117.6875 0 C 102.726562 -0.425781 94.5 -0.640625 93 -0.640625 C 91.851562 -0.640625 83.582031 -0.425781 68.1875 0 L 68.1875 -6.765625 C 75.988281 -6.765625 80.800781 -7.25 82.625 -8.21875 C 84.457031 -9.1875 85.375 -12.03125 85.375 -16.75 L 85.375 -67.96875 C 85.375 -75.414062 84.226562 -81.335938 81.9375 -85.734375 C 79.644531 -90.140625 75.347656 -92.34375 69.046875 -92.34375 C 61.460938 -92.34375 54.625 -89.15625 48.53125 -82.78125 C 42.445312 -76.414062 39.40625 -67.863281 39.40625 -57.125 L 39.40625 -16.75 C 39.40625 -12.03125 40.316406 -9.1875 42.140625 -8.21875 C 43.972656 -7.25 48.753906 -6.765625 56.484375 -6.765625 L 56.484375 0 C 41.523438 -0.425781 33.328125 -0.640625 31.890625 -0.640625 C 30.742188 -0.640625 22.476562 -0.425781 7.09375 0 Z M 7.09375 0 "/></g></g><g transform="translate(773.111474, 465.776598)"><g><path d="M 6.125 -48.4375 C 6.125 -62.25 10.5625 -74.054688 19.4375 -83.859375 C 28.3125 -93.671875 39.117188 -98.578125 51.859375 -98.578125 C 64.753906 -98.578125 74.546875 -94.390625 81.234375 -86.015625 C 87.929688 -77.640625 91.28125 -67.4375 91.28125 -55.40625 C 91.28125 -53.1875 90.992188 -51.863281 90.421875 -51.4375 C 89.847656 -51.007812 88.304688 -50.796875 85.796875 -50.796875 L 24.375 -50.796875 C 24.375 -35.828125 26.59375 -24.835938 31.03125 -17.828125 C 37.1875 -8.015625 45.457031 -3.109375 55.84375 -3.109375 C 57.269531 -3.109375 58.84375 -3.25 60.5625 -3.53125 C 62.28125 -3.820312 64.894531 -4.59375 68.40625 -5.84375 C 71.914062 -7.101562 75.207031 -9.414062 78.28125 -12.78125 C 81.363281 -16.144531 83.796875 -20.472656 85.578125 -25.765625 C 86.015625 -27.847656 86.945312 -28.851562 88.375 -28.78125 C 90.3125 -28.78125 91.28125 -27.921875 91.28125 -26.203125 C 91.28125 -24.910156 90.582031 -22.816406 89.1875 -19.921875 C 87.789062 -17.023438 85.765625 -13.859375 83.109375 -10.421875 C 80.460938 -6.984375 76.578125 -3.972656 71.453125 -1.390625 C 66.335938 1.179688 60.703125 2.46875 54.546875 2.46875 C 41.660156 2.46875 30.367188 -2.414062 20.671875 -12.1875 C 10.972656 -21.957031 6.125 -34.039062 6.125 -48.4375 Z M 24.59375 -55.40625 L 76.78125 -55.40625 C 76.78125 -58.488281 76.507812 -61.75 75.96875 -65.1875 C 75.4375 -68.625 74.398438 -72.722656 72.859375 -77.484375 C 71.316406 -82.242188 68.753906 -86.125 65.171875 -89.125 C 61.597656 -92.132812 57.160156 -93.640625 51.859375 -93.640625 C 49.503906 -93.640625 47.054688 -93.132812 44.515625 -92.125 C 41.972656 -91.125 39.160156 -89.40625 36.078125 -86.96875 C 33.003906 -84.539062 30.390625 -80.570312 28.234375 -75.0625 C 26.085938 -69.550781 24.875 -63 24.59375 -55.40625 Z M 24.59375 -55.40625 "/></g></g><g fill="#ff3131" fill-opacity="1"><g transform="translate(870.720252, 465.776598)"><g><path d="M 12.34375 -75.171875 C 12.34375 -97.285156 19.894531 -116.128906 35 -131.703125 C 50.113281 -147.273438 68.050781 -155.0625 88.8125 -155.0625 C 95.25 -155.0625 101.332031 -153.878906 107.0625 -151.515625 C 112.789062 -149.148438 116.976562 -146.945312 119.625 -144.90625 C 122.269531 -142.875 125.492188 -139.957031 129.296875 -136.15625 L 140.34375 -152.375 C 141.488281 -154.164062 142.648438 -155.0625 143.828125 -155.0625 C 145.015625 -155.0625 145.710938 -154.71875 145.921875 -154.03125 C 146.140625 -153.351562 146.25 -151.941406 146.25 -149.796875 L 146.25 -97.609375 C 146.25 -95.242188 146.101562 -93.773438 145.8125 -93.203125 C 145.53125 -92.628906 144.5 -92.34375 142.71875 -92.34375 C 141.28125 -92.34375 140.398438 -92.554688 140.078125 -92.984375 C 139.753906 -93.421875 139.453125 -94.460938 139.171875 -96.109375 C 136.953125 -111.929688 131.457031 -124.566406 122.6875 -134.015625 C 113.914062 -143.460938 103.445312 -148.1875 91.28125 -148.1875 C 87.769531 -148.1875 84.0625 -147.789062 80.15625 -147 C 76.257812 -146.21875 71.5 -144.320312 65.875 -141.3125 C 60.257812 -138.3125 55.285156 -134.320312 50.953125 -129.34375 C 46.617188 -124.363281 42.875 -117.164062 39.71875 -107.75 C 36.570312 -98.34375 35 -87.410156 35 -74.953125 C 35 -62.640625 36.570312 -51.757812 39.71875 -42.3125 C 42.875 -32.863281 46.617188 -25.6875 50.953125 -20.78125 C 55.285156 -15.875 60.257812 -11.914062 65.875 -8.90625 C 71.5 -5.90625 76.296875 -3.992188 80.265625 -3.171875 C 84.242188 -2.347656 87.984375 -1.9375 91.484375 -1.9375 C 104.085938 -1.9375 115.222656 -6.410156 124.890625 -15.359375 C 134.554688 -24.304688 139.851562 -36.332031 140.78125 -51.4375 C 140.925781 -52.15625 141 -52.675781 141 -53 C 141 -53.320312 141.066406 -53.660156 141.203125 -54.015625 C 141.347656 -54.367188 141.597656 -54.617188 141.953125 -54.765625 C 142.316406 -54.910156 142.785156 -54.984375 143.359375 -54.984375 C 145.285156 -54.984375 146.25 -53.726562 146.25 -51.21875 C 146.25 -37.257812 140.898438 -24.425781 130.203125 -12.71875 C 119.503906 -1.019531 105.707031 4.828125 88.8125 4.828125 C 67.976562 4.828125 50.023438 -2.898438 34.953125 -18.359375 C 19.878906 -33.828125 12.34375 -52.765625 12.34375 -75.171875 Z M 12.34375 -75.171875 "/></g></g></g><g fill="#ff3131" fill-opacity="1"><g transform="translate(1029.428374, 465.776598)"><g><path d="M 7.296875 0 L 7.296875 -6.765625 C 15.097656 -6.765625 19.894531 -7.25 21.6875 -8.21875 C 23.476562 -9.1875 24.375 -12.03125 24.375 -16.75 L 24.375 -131.109375 C 24.375 -136.554688 23.425781 -139.957031 21.53125 -141.3125 C 19.632812 -142.675781 14.890625 -143.359375 7.296875 -143.359375 L 7.296875 -150.234375 L 38.875 -152.59375 L 38.875 -16.75 C 38.875 -12.03125 39.800781 -9.1875 41.65625 -8.21875 C 43.519531 -7.25 48.316406 -6.765625 56.046875 -6.765625 L 56.046875 0 C 54.265625 0 51.507812 -0.0664062 47.78125 -0.203125 C 44.0625 -0.347656 40.84375 -0.457031 38.125 -0.53125 C 35.40625 -0.601562 33.253906 -0.640625 31.671875 -0.640625 C 29.953125 -0.640625 21.828125 -0.425781 7.296875 0 Z M 7.296875 0 "/></g></g></g><g fill="#ff3131" fill-opacity="1"><g transform="translate(1090.313044, 465.776598)"><g><path d="M 9.234375 -20.9375 C 9.234375 -33.394531 16.570312 -42.914062 31.25 -49.5 C 40.050781 -53.726562 53.546875 -56.378906 71.734375 -57.453125 L 71.734375 -65.5 C 71.734375 -74.59375 69.351562 -81.554688 64.59375 -86.390625 C 59.832031 -91.222656 54.445312 -93.640625 48.4375 -93.640625 C 37.695312 -93.640625 29.75 -90.273438 24.59375 -83.546875 C 28.957031 -83.398438 31.925781 -82.234375 33.5 -80.046875 C 35.070312 -77.867188 35.859375 -75.671875 35.859375 -73.453125 C 35.859375 -70.515625 34.945312 -68.097656 33.125 -66.203125 C 31.300781 -64.304688 28.847656 -63.359375 25.765625 -63.359375 C 22.835938 -63.359375 20.40625 -64.269531 18.46875 -66.09375 C 16.539062 -67.914062 15.578125 -70.441406 15.578125 -73.671875 C 15.578125 -80.828125 18.8125 -86.765625 25.28125 -91.484375 C 31.757812 -96.210938 39.617188 -98.578125 48.859375 -98.578125 C 60.890625 -98.578125 70.910156 -94.53125 78.921875 -86.4375 C 81.429688 -83.9375 83.3125 -81.070312 84.5625 -77.84375 C 85.8125 -74.625 86.507812 -71.957031 86.65625 -69.84375 C 86.800781 -67.738281 86.875 -64.609375 86.875 -60.453125 L 86.875 -16.53125 C 86.875 -15.675781 87.015625 -14.53125 87.296875 -13.09375 C 87.585938 -11.664062 88.394531 -10.039062 89.71875 -8.21875 C 91.039062 -6.394531 92.8125 -5.484375 95.03125 -5.484375 C 100.332031 -5.484375 102.945312 -10.171875 102.875 -19.546875 L 102.875 -31.890625 L 108.453125 -31.890625 L 108.453125 -19.546875 C 108.453125 -11.742188 106.394531 -6.320312 102.28125 -3.28125 C 98.164062 -0.238281 94.210938 1.28125 90.421875 1.28125 C 85.546875 1.28125 81.566406 -0.503906 78.484375 -4.078125 C 75.410156 -7.660156 73.660156 -11.882812 73.234375 -16.75 C 71.015625 -11.164062 67.378906 -6.566406 62.328125 -2.953125 C 57.285156 0.660156 51.328125 2.46875 44.453125 2.46875 C 39.160156 2.46875 34.023438 1.804688 29.046875 0.484375 C 24.066406 -0.835938 19.519531 -3.34375 15.40625 -7.03125 C 11.289062 -10.71875 9.234375 -15.351562 9.234375 -20.9375 Z M 26.203125 -21.15625 C 26.203125 -15.71875 28.132812 -11.242188 32 -7.734375 C 35.863281 -4.222656 40.515625 -2.46875 45.953125 -2.46875 C 52.109375 -2.46875 57.941406 -4.847656 63.453125 -9.609375 C 68.972656 -14.367188 71.734375 -21.4375 71.734375 -30.8125 L 71.734375 -52.828125 C 55.484375 -52.253906 43.832031 -48.726562 36.78125 -42.25 C 29.726562 -35.769531 26.203125 -28.738281 26.203125 -21.15625 Z M 26.203125 -21.15625 "/></g></g></g><g fill="#ff3131" fill-opacity="1"><g transform="translate(1200.270528, 465.776598)"><g><path d="M 3.96875 -87.953125 L 3.96875 -94.8125 C 11.914062 -94.382812 18.71875 -94.171875 24.375 -94.171875 C 27.164062 -94.171875 35.1875 -94.382812 48.4375 -94.8125 L 48.4375 -87.953125 C 39.769531 -87.953125 35.4375 -85.984375 35.4375 -82.046875 C 35.4375 -81.179688 35.796875 -79.851562 36.515625 -78.0625 L 57.453125 -19.328125 L 76.34375 -72.59375 C 73.695312 -79.75 72.015625 -83.757812 71.296875 -84.625 C 69.515625 -86.84375 64.898438 -87.953125 57.453125 -87.953125 L 57.453125 -94.8125 C 64.035156 -94.382812 70.550781 -94.171875 77 -94.171875 C 79.5 -94.171875 87.117188 -94.382812 99.859375 -94.8125 L 99.859375 -87.953125 C 91.203125 -87.953125 86.875 -85.984375 86.875 -82.046875 C 86.875 -81.472656 87.234375 -80.078125 87.953125 -77.859375 L 109.75 -16.53125 L 129.71875 -72.8125 C 130.4375 -74.738281 130.832031 -76.273438 130.90625 -77.421875 C 130.90625 -80.640625 129.757812 -83.160156 127.46875 -84.984375 C 125.175781 -86.816406 122.0625 -87.804688 118.125 -87.953125 L 118.125 -94.8125 C 126.5 -94.382812 133.300781 -94.171875 138.53125 -94.171875 C 144.394531 -94.171875 149.757812 -94.382812 154.625 -94.8125 L 154.625 -87.953125 C 145.539062 -87.660156 139.382812 -82.96875 136.15625 -73.875 L 110.390625 -1.71875 C 108.742188 0.925781 107.273438 2.320312 105.984375 2.46875 C 104.054688 2.46875 102.585938 1.070312 101.578125 -1.71875 L 79.140625 -64.21875 L 56.90625 -1.9375 C 56.332031 -0.144531 55.796875 1.035156 55.296875 1.609375 C 54.796875 2.179688 53.882812 2.46875 52.5625 2.46875 C 51.238281 2.46875 50.289062 2.09375 49.71875 1.34375 C 49.144531 0.59375 48.535156 -0.675781 47.890625 -2.46875 L 20.1875 -80.328125 C 18.894531 -83.691406 17.300781 -85.800781 15.40625 -86.65625 C 13.507812 -87.519531 9.695312 -87.953125 3.96875 -87.953125 Z M 3.96875 -87.953125 "/></g></g></g></svg>
